<svg width="191" height="207" viewBox="0 0 191 207" fill="none" xmlns="http://www.w3.org/2000/svg">
<path d="M94.5225 89.377C103.707 84.2467 112.376 82.7958 119.729 84.5303C127.129 86.2763 132.674 91.1475 135.503 97.5254C141.218 110.41 135.534 127.628 117.288 138.183C105.988 144.719 92.1817 149.53 78.376 152.559C79.2085 156.666 80.2954 160.774 81.5557 164.799C84.5191 174.264 88.2826 182.783 91.3174 188.952C92.8315 192.03 94.1562 194.507 95.0967 196.204C95.5666 197.052 95.9409 197.705 96.1934 198.14C96.3195 198.357 96.415 198.521 96.4775 198.626C96.5085 198.678 96.5317 198.717 96.5459 198.74C96.5528 198.752 96.5589 198.76 96.5615 198.765C96.5625 198.766 96.5632 198.768 96.5635 198.769C97.991 201.131 97.2339 204.204 94.8721 205.633C92.5094 207.062 89.4351 206.305 88.0059 203.942L92.2842 201.354C88.1471 203.857 88.0094 203.938 88.0039 203.939C88.0034 203.939 88.0019 203.937 88.001 203.936C87.999 203.932 87.9962 203.927 87.9932 203.922C87.9869 203.911 87.9783 203.897 87.9678 203.879C87.9462 203.843 87.9156 203.792 87.877 203.727C87.7993 203.596 87.6878 203.406 87.5459 203.161C87.2619 202.672 86.8549 201.961 86.3506 201.051C85.342 199.231 83.9398 196.609 82.3447 193.367C79.1609 186.896 75.1741 177.883 72.0127 167.786C70.6924 163.569 69.4881 159.067 68.5518 154.415C66.4423 154.751 64.3472 155.047 62.2754 155.297C52.9012 156.428 43.8556 156.696 35.9902 156.012C28.2446 155.337 21.1494 153.699 16.0469 150.646C8.23466 145.97 4.42113 136.02 7.45996 127.128C10.4543 118.367 19.322 112.223 33.4844 111.439V90.918C33.4846 87.6044 36.1708 84.918 39.4844 84.918C42.7977 84.9182 45.4842 87.6046 45.4844 90.918V137.918C45.4842 141.231 42.7977 143.918 39.4844 143.918C36.1708 143.918 33.4845 141.232 33.4844 137.918V121.453C22.3363 122.182 18.1379 126.807 16.9229 130.362C15.4302 134.73 17.3673 139.781 21.1826 142.064C24.3757 143.975 29.7017 145.426 36.8574 146.049C43.8938 146.661 52.2323 146.436 61.0781 145.369C63.0509 145.131 65.0414 144.849 67.041 144.53C65.5945 130.242 67.5019 115.454 76.8799 103.731C81.5425 97.9032 87.6848 93.1963 94.5225 89.377ZM37.2441 158.852C40.3181 157.615 43.8137 159.104 45.0508 162.178C46.2647 165.195 47.5123 166.684 48.9219 167.634C50.4216 168.644 52.749 169.477 56.9141 169.954H65.5C68.8135 169.954 71.4998 172.641 71.5 175.954C71.4998 179.268 68.8135 181.954 65.5 181.954H56.5596C56.3437 181.954 56.1277 181.942 55.9131 181.919C50.7047 181.354 46.0762 180.186 42.2168 177.586C38.2324 174.902 35.7219 171.14 33.918 166.657C32.6813 163.583 34.1702 160.089 37.2441 158.852ZM15.4482 10.9854C33.914 -4.12303 64.8803 -5.58805 94.2383 18.9541H121.094C125.41 18.9542 129.307 20.9656 131.992 24.0879C134.448 26.9436 138.268 31.2574 141.896 34.8447C145.058 37.9721 149.881 43.4273 152.657 46.6104C154.835 49.1075 154.576 52.898 152.079 55.0762C149.582 57.2542 145.791 56.9953 143.613 54.498C140.786 51.2561 136.251 46.1404 133.457 43.377C129.484 39.448 125.417 34.8462 122.894 31.9121C122.266 31.1823 121.586 30.9542 121.094 30.9541H56.5605C50.9944 30.9541 45.4846 36.1393 45.4844 43.8291L45.4834 62.418C45.4832 65.7315 42.7969 68.4179 39.4834 68.418C36.1697 68.4179 33.4833 65.7307 33.4834 62.417L33.4844 43.8291C33.4846 30.6706 43.2648 18.9541 56.5605 18.9541H77.123C54.6734 5.44102 33.9172 8.79437 21.7803 18.7246C7.40628 30.4854 6.3363 49.6628 17.7744 61.9482C20.3555 64.7201 24.5938 67.1772 30.3906 69.083C36.1298 70.9698 43.0443 72.2002 50.5732 72.7637C65.6545 73.8922 82.6203 72.3021 96.4551 68.4863C124.663 60.7065 144.889 53.3789 169.242 64.8301C181.376 70.5358 187.603 78.024 189.861 85.9912C192.06 93.7507 190.206 100.98 188.238 105.759C185.729 111.851 179.33 116.161 173.274 118.859C167.951 121.232 161.89 122.808 156.481 123.236V157.08C156.481 170.033 147.003 181.587 134.025 181.945L133.404 181.954H96.5C93.1864 181.954 90.5 179.268 90.5 175.954C90.5002 172.641 93.1865 169.954 96.5 169.954H133.404C138.97 169.954 144.481 164.769 144.481 157.079V81.418C144.482 78.1044 147.168 75.418 150.481 75.418C153.795 75.4182 156.481 78.1046 156.481 81.418V113.192C160.434 112.78 165.049 111.577 169.204 109.726C174.648 107.299 178 104.358 178.991 101.951C180.523 98.2306 181.583 93.4579 180.24 88.7178C178.956 84.1855 175.182 78.6738 164.987 73.8799C144.68 64.3311 128.566 70.0037 99.1133 78.127C84.118 82.2627 65.9978 83.9464 49.8271 82.7363C41.7307 82.1304 33.9769 80.7887 27.2676 78.583C20.6162 76.3963 14.624 73.2393 10.4551 68.7617C-5.10659 52.0471 -3.17737 26.2247 15.4482 10.9854ZM117.433 94.2627C113.099 93.2403 106.992 93.8665 99.3994 98.1074C93.3463 101.489 88.3291 105.428 84.6885 109.979C77.6364 118.794 75.802 130.422 76.9014 142.642C89.6612 139.786 102.207 135.353 112.28 129.526C127.304 120.836 129.487 108.627 126.361 101.58C124.77 97.9932 121.717 95.2737 117.433 94.2627Z" fill="black"/>
</svg>
